<svg id="Layer_1" data-name="Layer 1" xmlns="http://www.w3.org/2000/svg" viewBox="-2 -2 210 210">
  <defs>
    <style>
      @keyframes logo-ani1{
        from{stroke-dashoffset:700;}
        to{stroke-dashoffset:0;}
      }

      @keyframes logo-ani2{
        from{stroke-dashoffset:700;}
        to{stroke-dashoffset:0;}
      }

      @keyframes logo-ani3 {
      0% {
        transform: translate(-100%,0%);
      }
      100% {
        transform: translate(-21.29 -15.69);
      }
    }

      .cls-1 {
        stroke:#fbc049;
        fill:#fbc049;
        z-index:1000;
      }

      .cls-2 {
        stroke:#fff;
        fill:#fff;
        stroke-width:3.5px;
      }

      .cls-3{
        stroke:#e63927;
        fill:#e63927;
        z-index:1000;
      }

      .cls-4 {
        stroke:#20335f;
        fill: none;
        stroke-miterlimit: 10;
        stroke-width:6.5px;
        stroke-dasharray:700;
        stroke-dashoffset:0;
      }

      .cls-5 {
        fill:none;
        stroke: #20335f;
        stroke-width:18px;
        stroke-dasharray:700;
        stroke-dashoffset:0;
      }

      .cls-6 {
        fill:none;
        stroke:#fbc049;
        stroke-width:40px;
        stroke-dasharray:700;
        stroke-dashoffset:0;
        z-index:1000;
      }
      
      .cls-7 {
        fill:none;
        stroke:#e63927;
        stroke-width:25px;
        stroke-dasharray:1500;
        stroke-dashoffset:0;
      } 

    </style>
  </defs>
  <path class="cls-1" d="M205.71,137.14c3.7-13.65-7-27.89-20.6-31.58a25.47,25.47,0,0,0-16.16,1,19.55,19.55,0,0,1,.13-4.67c.1-.35.63-.63,1.59-.87a34,34,0,0,1,17.27.3q13.2,3.57,19.67,14.7a29.86,29.86,0,0,1-11.35,41.18A31.15,31.15,0,0,1,171.89,160a46.73,46.73,0,0,1-8.76-3.91q-6.93-3.72-6.44-5.5a25.94,25.94,0,0,1,1.83-4.29A25.45,25.45,0,0,0,171.73,155C185.38,158.68,202,150.79,205.71,137.14Z" transform="translate(-21.29 -15.69)"/>
  <mask id="logo-n-mask"><path class="cls-2" d="M195.53,54.09c-1,2.79-1.94,5.16-2.76,7.09a17.79,17.79,0,0,1-2.12,4q-4.25,5.2-8.48,10.43a107.3,107.3,0,0,0-8.8,17.29,239,239,0,0,0-10.6,32.47q-1.49,5.83-7,30.34-2,8.26-3.29,8.21-6.52-.31-9.34-38.75-.58-8.53-1.35-28.39-.52-14.93-1.53-21.85-1.36-9.72-4.67-14.13-4.2,6.84-9.1,23.64-7.76,26.34-10.14,33.26-8.12,23.37-20.49,32.78t-32.8,8.46q-16-.75-24.55-4.83t-8.33-9.64q.32-6.85,10.75-14.89,11.67-9,30.37-15,15.5-5,27.5-7.72c2.77-.64,6-1.3,9.78-2l.81.85c-5.14.84-16.17,3.79-20.72,5-6.83,1.86-6.3,1.9-13.69,4a100,100,0,0,0-15.49,5.51,65.88,65.88,0,0,0-11.9,6.14C39.24,131,32.34,140,32.16,143.91c-.14,3.16,5,12.21,23.08,13.05,9.51.44,12.73.31,17.93-.43,5.65-.8,19.92-6.1,22.88-9,5.26-3.36,9.1-10,12.86-18q3.23-6.89,10.39-30.63,14-46.65,20.94-46.34c1.28.06,2.61,2,4,5.69a83.18,83.18,0,0,1,3.53,15.19q.57,3.65,2.56,51.86.76,17.45,3.73,29.09,8.64-47.73,21.24-76.22,10.83-24.47,19-24.08Z" transform="translate(-21.29 -15.69)"/></mask>
  <path class="cls-3" d="M96.51,124.59A8.27,8.27,0,0,0,93.19,118c0,.13-.09.27-.13.41-.33,1-.56,1.47-.68,1.47l-1.92-.77a5.54,5.54,0,0,0-2.11-.39A5.9,5.9,0,0,0,84,120.44a5.68,5.68,0,0,0-1.73,4.15A5.5,5.5,0,0,0,84,128.65a5.94,5.94,0,0,0,4.34,1.77,6.67,6.67,0,0,0,2.8-.63c.92-.43,1.32-.64,1.21-.64.18,0,.38.54.61,1.62,0,.19.08.36.11.52A8.27,8.27,0,0,0,96.51,124.59Z" transform="translate(-21.29 -15.69)"/>
  <circle class="cls-4" cx="101.71" cy="101.71" r="99.71"/>
  <g mask="url(#logo-n-mask)">
    <path class="cls-5" d="M111.8,102.2l-15.29,3.2s-66.46,23-61.66,38.84S99.65,146,99.65,146l12.15-19,14.25-31.91.44-31s.15-16.65,7.86-10.76,11.63,44.94,11.78,65.6-1.6,29.09-1.6,29.09,3.34,17.53,7.49,10.25,15.2-96.65,30-85.31l10.66-15.41-7.31-7.1" transform="translate(-21.29 -15.69)"/>
  </g>
</svg>
